<svg xmlns="http://www.w3.org/2000/svg" aria-hidden="true" style="position:absolute;width:0;height:0;overflow:hidden">
  <defs>
    <symbol id="icon-close" viewBox="0 0 32 32">
      <path fill="#e7e9fc" d="M32 16c0 8.837-7.163 16-16 16S0 24.837 0 16 7.163 0 16 0s16 7.163 16 16z" style="fill:var(--color1, #e7e9fc)"/>
      <path fill="none" stroke="#000" stroke-width="1.333" d="M31.333 16c0 8.468-6.865 15.333-15.333 15.333S.667 24.468.667 16 7.532.667 16 .667 31.333 7.532 31.333 16z" style="stroke:var(--color2, #000)"/>
      <path fill="#2e2f42" d="m21.333 11.741-1.074-1.074L16 14.926l-4.259-4.259-1.074 1.074L14.926 16l-4.259 4.259 1.074 1.074L16 17.074l4.259 4.259 1.074-1.074L17.074 16l4.259-4.259z" style="fill:var(--color3, #2e2f42)"/>
    </symbol>
    <symbol id="icon-send" viewBox="0 0 32 32">
      <path d="m32 2.667-32 15 10.227 3.156L26 8.5 14.002 21.988l.01.003-.012-.003v7.345l5.735-5.576L27 25.999l5-23.333z"/>
    </symbol>
    <symbol id="icon-phone" viewBox="0 0 32 32">
      <path d="m28.865 21.822-4.525-.517a3.543 3.543 0 0 0-2.921 1.015l-3.278 3.278A26.8 26.8 0 0 1 6.402 13.859l3.296-3.296a3.545 3.545 0 0 0 1.015-2.921l-.517-4.489A3.566 3.566 0 0 0 6.651 0H3.569C1.556 0-.118 1.675.006 3.687.95 18.9 13.117 31.049 28.312 31.993c2.013.125 3.687-1.55 3.687-3.563v-3.082c.018-1.799-1.336-3.313-3.135-3.527z"/>
    </symbol>
    <symbol id="icon-email" viewBox="0 0 32 32">
      <path d="M26.667 0H5.334a2.663 2.663 0 0 0-2.653 2.667l-.013 16c0 1.467 1.2 2.667 2.667 2.667h21.333c1.467 0 2.667-1.2 2.667-2.667v-16C29.335 1.2 28.135 0 26.668 0zm-.534 5.667-9.427 5.893a1.346 1.346 0 0 1-1.413 0L5.866 5.667a1.132 1.132 0 1 1 1.2-1.92l8.933 5.587 8.933-5.587a1.132 1.132 0 1 1 1.2 1.92z"/>
    </symbol>
    <symbol id="icon-name" viewBox="0 0 32 32">
      <path fill="#4d5ae5" d="M16 16c4.42 0 8-3.58 8-8s-3.58-8-8-8-8 3.58-8 8 3.58 8 8 8zm0 4c-5.34 0-16 2.68-16 8v2c0 1.1.9 2 2 2h28c1.1 0 2-.9 2-2v-2c0-5.32-10.66-8-16-8z" style="fill:var(--color4, #4d5ae5)"/>
    </symbol>
    <symbol id="icon-vector" viewBox="0 0 32 32">
      <path d="M32 3.223 28.777 0 16 12.777 3.223 0 0 3.223 12.777 16 0 28.777 3.223 32 16 19.223 28.777 32 32 28.777 19.223 16 32 3.223z"/>
    </symbol>
    <symbol id="icon-Vector-5" viewBox="0 0 40 32">
<path d="M33.843 1.958c0.657-0.578 1.532-0.897 2.44-0.891s1.777 0.338 2.425 0.925c0.648 0.587 1.023 1.383 1.047 2.221s-0.305 1.651-0.919 2.269l-18.62 21.495c-0.32 0.318-0.707 0.574-1.136 0.751s-0.893 0.273-1.364 0.281c-0.47 0.008-0.938-0.072-1.374-0.234s-0.833-0.405-1.166-0.712l-12.348-11.398c-0.344-0.296-0.62-0.652-0.811-1.049s-0.294-0.824-0.302-1.258c-0.008-0.434 0.078-0.865 0.254-1.267s0.438-0.768 0.77-1.075 0.728-0.549 1.164-0.711c0.436-0.162 0.903-0.242 1.373-0.235s0.933 0.103 1.363 0.279c0.429 0.177 0.816 0.431 1.136 0.749l9.772 9.016 16.207-19.062c0.029-0.033 0.060-0.065 0.093-0.095h-0.005z"></path>
</symbol>
  </defs>
</svg>
